<svg xmlns="http://www.w3.org/2000/svg" xmlns:xlink="http://www.w3.org/1999/xlink" viewBox="0 0 400 300" width="406" height="306" class="illustration styles_illustrationTablet__1DWOa"><defs><linearGradient id="linear-gradient" x1="133.89" y1="257.47" x2="148.29" y2="235.87" gradientUnits="userSpaceOnUse"><stop offset="0" stop-color="#fff" stop-opacity="0"></stop><stop offset="0.99" stop-color="#ffa86a"></stop></linearGradient><linearGradient id="linear-gradient-2" x1="181.84" y1="108.24" x2="167.88" y2="121.51" gradientUnits="userSpaceOnUse"><stop offset="0" stop-color="#00a99d"></stop><stop offset="1" stop-color="#fff"></stop></linearGradient><linearGradient id="linear-gradient-3" x1="122.92" y1="122.12" x2="108.96" y2="135.4" xlink:href="#linear-gradient-2"></linearGradient><linearGradient id="linear-gradient-4" x1="153.02" y1="151.19" x2="135.22" y2="168.11" xlink:href="#linear-gradient-2"></linearGradient><linearGradient id="linear-gradient-5" x1="264.41" y1="117.12" x2="245.62" y2="134.98" xlink:href="#linear-gradient-2"></linearGradient><linearGradient id="linear-gradient-6" x1="226.38" y1="107.58" x2="212.42" y2="120.85" xlink:href="#linear-gradient-2"></linearGradient><linearGradient id="linear-gradient-7" x1="235.36" y1="154.46" x2="221.4" y2="167.74" xlink:href="#linear-gradient-2"></linearGradient><linearGradient id="linear-gradient-8" x1="280.75" y1="214.27" x2="302.32" y2="191.33" gradientTransform="matrix(-1, 0, 0, 1, 617.41, 0)" gradientUnits="userSpaceOnUse"><stop offset="0" stop-color="#ff734d" stop-opacity="0"></stop><stop offset="1" stop-color="#42210b"></stop></linearGradient></defs><title>PP</title><g style="isolation: isolate;"><g id="Layer_2" data-name="Layer 2"><path d="M289.71,89.37s-8,.67-9.71,0-7-2.61-7.38-1.06,2.67,2.33,2.67,2.33-5.43,1.36-6.94,1.81-.66,1.86.56,1.65c0,0-3.15,1.42-2.07,2.14a3,3,0,0,0,2.32.33s-1.43,1.17.2,1.89a16.66,16.66,0,0,0,4.43-1s-1.83,1.56-1.24,2,.42.85,5.88-2c0,0,11.4-2.54,13.94-3" fill="#f04900"></path><path d="M304.18,67s-3.73,11.42-6.87,14.43c-2.2,2.11-11.73,5.36-17.24,7.12a17.77,17.77,0,0,0,3.64,9.73c8.09-1.87,21.22-6.58,24.44-10.4,4.72-5.59,6.87-13.76,6.87-13.76Z" fill="#68e1fd"></path><path d="M304.18,67s-3.73,11.42-6.87,14.43c-2.2,2.11-11.73,5.36-17.24,7.12a17.77,17.77,0,0,0,3.64,9.73c8.09-1.87,21.22-6.58,24.44-10.4,4.72-5.59,6.87-13.76,6.87-13.76Z" fill="#075b5d" opacity="0.39"></path><path d="M194.51,288.32,22,186.37c-5.49-3.08-10.2-8.15-4.85-11.46L190.29,75.13c2.6-1.61,6.54-2.66,9.18-1.13L380.54,179.09c5.49,3.19,6.48,12.1,1,15.29L217.25,288.15A22.94,22.94,0,0,1,194.51,288.32Z" fill="#007f68"></path><path d="M174.37,268.64c-42.59-28.13-67.2-30.9-106.81-60,25.1-13.08,67.74-38.53,83.23-48.22l105.56,61.65-80,46.58Z" opacity="0.63" fill="url(#linear-gradient)" style="mix-blend-mode: multiply;"></path><path d="M127.88,199.71l1.06-5.6a19,19,0,0,0,.47-2.5,13.85,13.85,0,0,0-.27-2.15,6.53,6.53,0,0,0-.23-1.9c-.25-.4-1.08-.75-1.45-1l-2.16-1.5a4.29,4.29,0,0,1-1.38-1.85l-2.66-5-2.19-4.1c-.45-.84.31-2.4.52-3.28a5.84,5.84,0,0,1,.43-1.75l1.25-1.61c.93-1.19,1.73-1.88,1.49-3.57-.06-.38-.29-.59,0-.87,0,0-.1-.58-.05-.77.12-.51-1-1-.9-1.48s.12-.54-.38-.83-.36-.19-.73,0a3.9,3.9,0,0,0-.74.6c-.13.12.24.55.32.7-.72.31-.69.39-1-.39-.15.43-.87-.3-1.27-.37-.21,0-.35.2-.48.11l-.66-.5c-.45-.34-1.34-.76-1.65-1.25s-.13-1-.47-1.44c-.85-1-1.37-1.85-2.56-2.19-.92-.25-2.45-.32-3.18-1l-1.92-1.89c-.42-.41-1,0-1.51.18-1.13.35-2.29-.48-3.37-.91l-2.62-1.06a3.32,3.32,0,0,1-1-.42l-1.7-1.73c-.53-.53-.21-.85,0-1.59.14-.48-.76-1.44-1-1.82a5.4,5.4,0,0,0-.9-1.09l-1.84-1.7c-.14-.13,0-.52.07-.7s-.3-.48-.4-.61l-.38-.49q.06,1.73.17,3.45c.24.21.53.53.49.82s-.23.44-.41.41a102.54,102.54,0,0,0,33,67.66c.12-1.27.27-2.54.5-3.78Z" fill="#68e1fd"></path><path d="M296.49,147.35c.06.28.06.86-.43.6-.13-.07-.28-.73-.35-.89.16,0,.3-.17.47-.2a1.7,1.7,0,0,0-2-.23c-.47.38-1.61.94-1.81,1.56-.06.19-.43,1-.33,1.17l.85,1.35c.4.65.9,1.22,1.36,1.82s.91,1,.95,2c0,.59.35,2-.08,2.37a47,47,0,0,1-3.78,3.2c-.44-.45.17-1.13-.14-1.46L290,157.23a3.21,3.21,0,0,0-2.39-1.32l.1-.75c-1,0-.82.18-.91,1.27a7.14,7.14,0,0,1-.6,1.88,2,2,0,0,0,0,.83c0,.53,0,.44.53.42.25,0,.56,1.6.65,1.89.15.49,1.1.94,1.47,1.22a4.1,4.1,0,0,1,1.09,1.24c.22.57,0,1.39.12,2a14,14,0,0,0,.69,1.72,4.67,4.67,0,0,1-2.07-1.23c-.65-.51-.69-.8-1-1.65a8.08,8.08,0,0,0-.78-2.35l-1.82-1.94c-.27-.3.11-1.89.16-2.34a16.9,16.9,0,0,0-.17-2.57A18.85,18.85,0,0,0,284,151l-1,1.19c-.41.5-.37.49-1,.35s-.6-.09-.5-.8c0-.31.3-1.11.17-1.39a5.76,5.76,0,0,0-1.49-2.55,5.92,5.92,0,0,1-1.33-2.43c-.36.25-.87.81-1.3.86l-2.26.31c-.1,0-.57,0-.65.09s.1.66,0,.8l-1.11,1.14-3.15,3.24a5.72,5.72,0,0,1-1.51.75c-.56.27-.35.69-.34,1.36a7.85,7.85,0,0,1,0,2c-.14.51-.55,1.32-.41,1.84a3.57,3.57,0,0,0,.84,1.81,6.36,6.36,0,0,1,.95,1.78c.52,1.2-1.52,2.25-1.67.63a14.34,14.34,0,0,1-.06-2.09c0-.7-.22-.8-.69-1.3-.06.49,0,1-.37,1.26l-1.28.84c-1.18-2.24-2.19-4.55-3.22-6.89a11.44,11.44,0,0,1-.86-2,9,9,0,0,1-.05-1.57q-.07-2.24-.14-4.47l-.94,1.3c-.31.44-.35.38-.88.36s-1.26-1.14-1.67-1.58c.42-.09,1.3,0,1.37-.62a2.81,2.81,0,0,1-.75.07,8.63,8.63,0,0,1-1.84-1c-.38-.22-.62-1.2-.82-1.61s-3.37.25-3.9.32a10.73,10.73,0,0,1-3.5-.59c-.5-.11-1.08-.06-1.34-.57-.46-.92-.35-1.18-1.26-.85a3.42,3.42,0,0,1-2,0c-.5-.08-.82-.69-1.27-.91a2,2,0,0,1-1.31-1.36c-.27-.58-.38-1.33-1-1.42-1.05-.15-1-.11-1.78.75-.25.3.63,1.36.82,1.67.66,1.1,1.22,2.27,1.82,3.4.09-.52.17-1,.25-1.54a4.91,4.91,0,0,1,.37,2.44,6.58,6.58,0,0,0,2.71-.34,11.26,11.26,0,0,0,1.87-2.13c.05.65-.11,1.71.43,2.07a6.78,6.78,0,0,0,1,.67c.3.13.66,0,.84.35s.34.9.6.94c.46.08.27.4.24.88s-1,1.29-1.31,1.64c0-.15-.14-.29-.16-.44a3.14,3.14,0,0,0-.4,1.52c0,.56-.21.5-.68.73l-1.45.69c-.29.13-.28.94-.55,1.08s-.58-.19-.82-.09l-1.06.46c-.48.22-.42.87-.86,1l-2.4.86c-.24.08-.28.21-.43.44s-.44.27-.77.33c-.69.13-1.38.36-2.06.54-.51.13-.61.71-1.16.71-.86,0-.93.19-1.1-.7l-.5-2.7a10.32,10.32,0,0,0-1.66-3.54c-.43-.72-.49-.85-1.23-1.13-.43-.16-.42-1.46-.5-1.91a7.39,7.39,0,0,0-.86-1.91c-.18-.36-.6-.54-.83-.94l-1.43-2.57c-.24-.42-.42-1.16-1-1,.07-.52.14-1.05.21-1.58l-.62,1.89a8.69,8.69,0,0,1-1.56-2.37c-.51.64.39,1.71.68,2.3l1.75,3.58c.35.71.22,1.51.74,2.07.22.24.78.63.83,1,.09.61.19,1.21.28,1.81.05.35,0,1,.28,1.28a6.72,6.72,0,0,1,1.07,1,15.53,15.53,0,0,1,1,2.82c.11.3,1,.25,1.16.5l1,1.14c.54.63,1.64,1.32.79,2.14.57.17,1.19,1.35,1.65,1.24l4.69-1.26c.29-.07,1.12-.43,1.36,0,.15.26-.4,1.76-.47,2.08a15.29,15.29,0,0,1-1.78,3.53,12.13,12.13,0,0,1-1.64,2.7c-1.89,2-4.1,3.82-5.51,6.25-.32.53-2.34,3.29-2,3.78a2.39,2.39,0,0,1,.51,2.06,1.9,1.9,0,0,0,.55,1.76c.85,1.15.56,2.93.63,4.38a3.26,3.26,0,0,1-1.67,2.73c-.48.23-1.45.46-1.81.88l-1.41,1.65c-.42.48-.92.71-.66,1.34.18.42.82,1.39.77,1.84a7.25,7.25,0,0,1-.25,2.23c-.24.39-1.43.68-1.83.87-.66.32-.52.62-.6,1.44a6.17,6.17,0,0,1-.2,2,33.59,33.59,0,0,1-2.42,3.42,19.88,19.88,0,0,1-1.61,1.39c-.3.26-.88,1-1.27,1.08l-4.19.88-1.93.41c-.31.06-.94-.75-1.16-1-.76-.68-.73-.67-.62-1.77,0-.42-.43-1.17-.58-1.54l-1-2.44c-.19-.48-.79-.86-1.15-1.21s-.24-1.36-.29-1.7l-.43-2.79a11.35,11.35,0,0,0-1.36-3.34l-1.07-2.18c-.16-.32.06-.92.11-1.25a12.44,12.44,0,0,1,1-4.47c.75-1.32.29-2.38,0-3.75l-1-4.45c-.11-.45-.7-1-1-1.33l-1.51-2c-.27-.36-.08-.83,0-1.29.1-.92.21-1.85.32-2.77s.13-.84-.32-1.47-.5-.79-1.32-.74c-.47,0-1.43.33-1.77-.09l-1.45-1.78c-.21-.26-3.16.21-3.53.4l-2.09,1.07c-.55.28-.79.14-1.39,0a2.45,2.45,0,0,0-1.62-.14l-2.29.81c-.36.13-.77-.36-1.07-.58l-2.2-1.58a5.44,5.44,0,0,1-2-2l-2.8-4.87-.9-1.56c-.14-.24.36-1.15.45-1.4.16-.43.64-1.22.54-1.7-.17-.78-.35-1.55-.52-2.33a7.66,7.66,0,0,1-.44-2,4.24,4.24,0,0,1,.6-1.08l2.7-4.88a5.76,5.76,0,0,1,2.47-2.16c.56-.36.81-.36.92-1.05l.39-2.58c.15-1,2.17-1.2,2.57-2.19.28-.69.4-1.65,1.09-1.84.18-.05.68.89,1.24.77.25-.05.82-.3,1.06-.18s.64.45.76.38a18.91,18.91,0,0,1,1.66-1,12.83,12.83,0,0,1,3.47-1.08,3.34,3.34,0,0,1,1.07-.11,2.75,2.75,0,0,0,.85.28c.29,0,.56-.34.84-.4a4,4,0,0,1,.79,0,2.93,2.93,0,0,0,1.94-.22c.53-.32,1,.1,1.59.34-.41.9-.49.94,0,1.8.22.39-.62,1-.89,1.29.44.4,1,1.13,1.55,1.27l2.87.76c.74.19.53,1,1.26,1.33s1.24.17,1.83.59c.84.59,1.27.73,1.81-.32.12-.25-.28-.63-.15-.86s.33-.78.52-.84a3.61,3.61,0,0,1,2.32-.16c.21.06,0,.48.29.54l1.3.27c.35.07.36.24.54.59.09.18.43-.22.58-.17l2.07.61a1.57,1.57,0,0,0,1.59-.13c.8-.39.87-.51,1.66-.13a2,2,0,0,0,2.83-.88c.24-.68,1.35-2.66,1.13-3.57l-1.65-.25a.42.42,0,0,0-.07.55c-.19.06-2.12.6-1.65-.34.14-.28.86-.13,1-.11a1,1,0,0,0,.47-.12q-5-.72-10-1.3l0,.06a2.59,2.59,0,0,1-.59-.13q-3.37-.39-6.74-.72a1.09,1.09,0,0,0,.05.17c.23.46-.71.61-.81.24s-.51-.43-.92-.57q-6.41-.59-12.84-1c-.19.23-.35.48-.25.69-.21.05-.7.07-.82.27s-.34.72-.53.73a13.2,13.2,0,0,1-1.83,0c-.54,0-.86.64-1.29.78s-1.08-.73-.6-1.07c-.47.22-.69-.57-1.29-.23s-.82-.14-1.25.19a3.89,3.89,0,0,0,.14-1.05c0-.2,0-.39,0-.59s0-.07,0-.08h0c-.07,0-.17.09-.22,0v0l-3-.11a346.44,346.44,0,0,0-59.22,3l-.28.08c.35,0,.95-.11.86.4,0,.21-.75.22-.95.26.1.06.19.16.3.22-.16.05-.24.16-.44.16.17.42.42,0,.7.21l-.59.32c-.15.08-.37-.17-.49-.1s-.48.69-.64.94-.54.1-.77.38a2.74,2.74,0,0,1-.65.74,3.22,3.22,0,0,0-1.61,1.83,2.54,2.54,0,0,0,.14,1.84,17,17,0,0,1,.94,2.53c.14.47.26,1.69-.08,2s-.48.6-.78.18c-.1-.13-.65-.63-.66-.67a6,6,0,0,0-.41-1c-.16-.37-.35-.58-.24-1l-.2.17c-.16-.56.35-1.36-.21-1.74s-.76-1-1.34-.82c-.31.1-.64.33-.93.14a4.07,4.07,0,0,0-.89-.58c-.51-.14-1.36.54-1.51-.33-.1.75-1.76.21-2.26.6.34,0,1.62.19.67.65.1.05.62.23.64.33a.28.28,0,0,1-.35.34c.14-.35-.38-.48-.63-.63.05.25-.05.33-.06.51-.23-.48-.44,0-.75-.22s-.57-.58-1-.42c-.26.09-.63-.15-.88-.25-.47-.18-1.22.36-1.67.55-.74.3-2.52,1.62-2.53,2.69,0,.33.43.66.45,1a3.08,3.08,0,0,1-.23.8,6.77,6.77,0,0,0-.42,1.8,6.46,6.46,0,0,0,1.06,3.93c.5.75.69,1.28,1.51,1.52.17.06.44.48.58.42l1-.38a3,3,0,0,1,.91-.21c.24,0,.43.3.56.24a1.91,1.91,0,0,0,.43-.2c.08-.07-.12-.27,0-.38a1.34,1.34,0,0,0,.55-.75c.19-.65.14-1.41.82-1.69a5.21,5.21,0,0,1,1.52-.3c.39,0,1.5-.18,1.15.66-.14.33-.59,1.32-.83,1.34.12.07.05.19.33.18-.11.09-.19.21-.29.29l.05.07.16-.11a6.45,6.45,0,0,0-.33,1.21.78.78,0,0,1-.2-.7,2.36,2.36,0,0,0-.27.46c.52,0-.08,1,.1,1.39s-.4,1-.63,1.17a12.43,12.43,0,0,0,2.26.18c.31,0,.54-.24.86-.18a4.45,4.45,0,0,1,1.14.16,1.41,1.41,0,0,1,1,1.58c-.08.51-.16,1-.24,1.54,0,.3-.29.56-.33.84-.17,1.39,1.51,3.66,2.77,3.14.78-.32,1.18-.64,2-.39a3.47,3.47,0,0,1,1.69,1.32c0-1,1.18-2.32,1.65-3.12.14-.25,1.06-.39,1.3-.48l2-.72c.61-.22,1.71.31,2.31.45l4.72,1.1a4.57,4.57,0,0,1,2.37.84l3.68,3.53c.78.74,2.47.76,3.45,1s1.65,1.76,2.23,2.53l1.77,2.32c.14.19.46.81.68.88l3.79,1.37,3.79,1.37A15.93,15.93,0,0,1,160,174c.17,0,1.34,0,1.38.16.13.57.26,1.13.39,1.69.28,1.22.31,1.2-.36,2.17l-2.47,3.56a3.48,3.48,0,0,0-.9,1.7c-.13,1.75-.25,3.5-.38,5.25-.08,1.16-1.29,2.35-1.88,3.27-.26.39-.48,1.06-1,1.09s-1.5-.13-1.88.13l-3.46,2.38c-.23.16-.22,1.89-.26,2.19s0,1-.21,1.29l-2.87,3.69L143.52,206c-.2.25-3-.94-3.39-1.07-.25.95,1.33,1,1.49,1.87a5.69,5.69,0,0,1,.32,1.57c-.07.36-.6.88-.79,1.17-.58.85-1.36.83-2.29,1.08a4.06,4.06,0,0,1-2.25,0c.18.58.32.82.11,1.37-.13.34,0,.9-.17,1-.91.64-1.45.36-2.4-.11a7.45,7.45,0,0,0,0,1.58c.08.34.63.91.49,1.23l-.87,1.88c-.28.62-.39.56-1,.71a.82.82,0,0,0-.22.11A102.83,102.83,0,0,0,290.8,174.82c-.78-.74-1.5-1.5-2.21-2.27a5.36,5.36,0,0,1-1-1.33,8.87,8.87,0,0,0-1-2.13c-.18-.19-.46-.09-.53-.38l-.34-1.26c-.19-.71-1.09-.56-1.12-1.33s-.83-.85-1.21-1.18c-.17-.15-1.13-1.36-.94-1.65s1.34.28,1.59.31c.81.09.68.4,1.11,1a11.84,11.84,0,0,0,1.34,1.22c.47.45,1,.62,1.42,1.14.21.28.43.25.76.31.54.1.17.18.48.42s.49,0,.49.5c0,.26.56.22.64.64s-.28.4-.22.78.53.32.73.4.19.73.23.92c.07.36.49.34.05.78a.69.69,0,0,1,.93-.17l.12-.33c0-.07-.08-.12-.13-.12a.48.48,0,0,1-.44-.11c.2-.25.31-.67.58-.25,0-.09,0-.17,0-.26a.3.3,0,0,1,.26.09,102.27,102.27,0,0,0,5.19-24.13l-.87.32C296.32,146.91,296.4,146.91,296.49,147.35Zm-80.17-16.42a1.62,1.62,0,0,0,1.35.36c.31,0,1,.08,1,.43a7.1,7.1,0,0,1-2.55-.31A1.4,1.4,0,0,1,216.32,130.92Zm-93.37,19.76a3.26,3.26,0,0,1-1.05-.56c.39-.58,1.22-.11,1.7.05a2.59,2.59,0,0,1,.22.34C123.42,150.39,123.16,150.75,122.95,150.69Zm1.61-2.26c-.72-.06-1.43.11-2.14,0,.09-.1.57-.46.57-.58,0-.39-.56-.24-.71-.31-.57-.27-.59-.88-1.11-.95s-1-.45-1.57-.47c-.32,0-.35-.24-.64-.15a.66.66,0,0,1-.69-.25.63.63,0,0,0,.49-.1c-.95-1-2,1.19-3,.69.48-.3.64-.88,1.24-1a5.75,5.75,0,0,1,2.09-.28,8.16,8.16,0,0,1,3.57,1.53l.07-.14a1.89,1.89,0,0,0,1.52.74c.12,0,.27.4.53.44a2,2,0,0,1,.89.53C125.31,148.21,124.94,148.33,124.56,148.43Zm5.86,1.54c-.56,0-.91.16-1.4.18-.1,0-.17-.27-.45-.08s-.16.72-.33.78c-.39.14-.33-.52-.47-.6s-.53,0-.75,0c-.72-.11-1,.2-1.54-.22-.2-.61,1.51.08,1.92-.22-.42-.63-.35-.85-1-1.17.65-.3.84-.09,1.52-.08a2.2,2.2,0,0,0,.61-.16c.22-.12.59.12.82.19s.32-.13.5.21.26.46.72.55c.19,0,.62.3.5.5C130.76,150.34,130.84,150,130.42,150Zm1.81.36c-.31-.77.8-.42,1.21-.39l.15.16C133.38,150.43,132.45,150.87,132.23,150.33Zm108.46,35-.48-.47a7,7,0,0,1-.36,3.15q-.83,2.77-1.66,5.55c-.15.51-.31,1-.46,1.52,0,.07-1.21.42-1.37.5s-1.36-.31-1.4-.56a15.8,15.8,0,0,0-.37-2,3,3,0,0,1-.12-2c.2-.6.9-1.22,1-1.85a7.76,7.76,0,0,0-.46-2.07c-.07-.32.22-1.54.49-1.58a6.24,6.24,0,0,0,1.85-.68c.6-.3.81-.8,1.26-1.32s.82-.65.86-1.57c.05-1.15.82,0,1.06.38l0,0C240.76,183.46,241.11,184.29,240.69,185.29ZM297,148.76c-.33,0-.41.43-.46.75s-.48.35-.7.46.08.25-.17.23a.9.9,0,0,1-.51-.15c-.48-.27-.38-.39-.37-1,.59-.38,1-1.16,1.85-.68l0-.22C297,148.2,297.07,148.45,297,148.76Z" fill="#68e1fd"></path><path d="M132.23,150.33c.22.54,1.15.11,1.36-.23l-.15-.16C133,149.91,131.92,149.56,132.23,150.33Z" fill="#075b5d"></path><path d="M130.54,149.36c-.46-.1-.49-.1-.72-.55s-.2-.11-.5-.21-.6-.31-.82-.19a2.2,2.2,0,0,1-.61.16c-.68,0-.87-.22-1.52.08.68.32.6.54,1,1.17-.41.3-2.12-.39-1.92.22.58.41.82.11,1.54.22.21,0,.56-.09.75,0s.08.74.47.6c.17-.06.17-.67.33-.78s.35.08.45.08c.5,0,.84-.18,1.4-.18s.33.37.62-.12C131.16,149.65,130.73,149.4,130.54,149.36Z" fill="#075b5d"></path><path d="M240.52,182.34c-.24-.33-1-1.53-1.06-.38,0,.92-.29.92-.86,1.57s-.66,1-1.26,1.32a6.24,6.24,0,0,1-1.85.68c-.27,0-.56,1.26-.49,1.58a7.76,7.76,0,0,1,.46,2.07c-.07.63-.77,1.25-1,1.85a3,3,0,0,0,.12,2,15.8,15.8,0,0,1,.37,2c0,.25,1.17.67,1.4.56s1.35-.43,1.37-.5c.15-.51.3-1,.46-1.52q.83-2.77,1.66-5.55a7,7,0,0,0,.36-3.15l.48.47c.41-1,.07-1.83-.14-2.9Z" fill="#075b5d"></path><path d="M296.63,148.37c-.84-.47-1.26.3-1.85.68,0,.6-.1.72.37,1a.9.9,0,0,0,.51.15c.26,0,0-.16.17-.23s.66-.11.7-.46.12-.77.46-.75c.07-.32,0-.56-.32-.61Z" fill="#075b5d"></path><path d="M275,141.78c-14.62-3.25-29.07-7.32-43.87-9.69-1.18-.19-2.35-.36-3.53-.54.21.91-.89,2.88-1.13,3.57a2,2,0,0,1-2.83.88c-.79-.38-.86-.26-1.66.13a1.57,1.57,0,0,1-1.59.13l-2.07-.61c-.15,0-.49.35-.58.17-.18-.35-.19-.52-.54-.59l-1.3-.27c-.27-.05-.08-.48-.29-.54a3.61,3.61,0,0,0-2.32.16c-.19.05-.41.65-.52.84s.28.61.15.86c-.54,1.06-1,.91-1.81.32-.59-.42-1.2-.31-1.83-.59s-.52-1.13-1.26-1.33l-2.87-.76c-.56-.15-1.1-.88-1.55-1.27.28-.3,1.11-.9.89-1.29-.46-.86-.38-.9,0-1.8-.55-.23-1.05-.66-1.59-.34a2.93,2.93,0,0,1-1.94.22,4,4,0,0,0-.79,0c-.28.05-.55.38-.84.4a2.75,2.75,0,0,1-.85-.28,3.34,3.34,0,0,0-1.07.11,12.83,12.83,0,0,0-3.47,1.08,18.91,18.91,0,0,0-1.66,1c-.12.07-.63-.31-.76-.38s-.81.13-1.06.18c-.56.12-1.06-.82-1.24-.77-.69.2-.81,1.16-1.09,1.84-.39,1-2.41,1.18-2.57,2.19l-.39,2.58c-.1.69-.36.7-.92,1.05a5.76,5.76,0,0,0-2.47,2.16l-2.7,4.88a4.24,4.24,0,0,0-.6,1.08,7.66,7.66,0,0,0,.44,2c.18.78.35,1.55.52,2.33.1.48-.38,1.27-.54,1.7-.09.25-.59,1.16-.45,1.4l.9,1.56,2.8,4.87a5.44,5.44,0,0,0,2,2l2.2,1.58c.29.21.7.71,1.07.58l2.29-.81a2.45,2.45,0,0,1,1.62.14c.6.16.84.3,1.39,0l2.09-1.07c.37-.19,3.32-.65,3.53-.4l1.45,1.78c.34.42,1.29.11,1.77.09.82-.05.79,0,1.32.74s.42.68.32,1.47-.22,1.85-.32,2.77c-.06.46-.25.93,0,1.29l1.51,2c.26.35.86.88,1,1.33l1,4.45c.32,1.37.78,2.42,0,3.75a12.44,12.44,0,0,0-1,4.47c0,.33-.27.93-.11,1.25l1.07,2.18a11.35,11.35,0,0,1,1.36,3.34l.43,2.79c.05.34,0,1.46.29,1.7s1,.73,1.15,1.21l1,2.44c.15.37.62,1.12.58,1.54-.11,1.09-.14,1.08.62,1.77.22.21.85,1,1.16,1l1.93-.41,4.19-.88c.39-.08,1-.82,1.27-1.08a19.88,19.88,0,0,0,1.61-1.39,33.59,33.59,0,0,0,2.42-3.42,6.17,6.17,0,0,0,.2-2c.08-.82-.07-1.12.6-1.44.4-.19,1.58-.48,1.83-.87a7.25,7.25,0,0,0,.25-2.23c0-.46-.59-1.43-.77-1.84-.26-.63.24-.85.66-1.34l1.41-1.65c.36-.42,1.33-.65,1.81-.88a3.26,3.26,0,0,0,1.67-2.73c-.07-1.44.22-3.23-.63-4.38a1.9,1.9,0,0,1-.55-1.76,2.39,2.39,0,0,0-.51-2.06c-.33-.49,1.69-3.25,2-3.78,1.42-2.43,3.62-4.27,5.51-6.25a12.13,12.13,0,0,0,1.64-2.7,15.29,15.29,0,0,0,1.78-3.53c.07-.32.62-1.82.47-2.08-.24-.42-1.08-.07-1.36,0l-4.69,1.26c-.46.12-1.08-1.06-1.65-1.24.85-.82-.25-1.51-.79-2.14l-1-1.14c-.21-.25-1.06-.2-1.16-.5a15.53,15.53,0,0,0-1-2.82,6.72,6.72,0,0,0-1.07-1c-.27-.26-.23-.93-.28-1.28-.1-.61-.19-1.21-.28-1.81-.06-.35-.61-.74-.83-1-.52-.56-.39-1.36-.74-2.07l-1.75-3.58c-.29-.58-1.18-1.66-.68-2.3a8.69,8.69,0,0,0,1.56,2.37l.62-1.89c-.07.53-.15,1.06-.21,1.58.56-.15.74.59,1,1l1.43,2.57c.22.4.65.58.83.94a7.39,7.39,0,0,1,.86,1.91c.08.45.08,1.75.5,1.91.74.28.81.41,1.23,1.13a10.32,10.32,0,0,1,1.66,3.54l.5,2.7c.17.89.24.7,1.1.7.55,0,.66-.58,1.16-.71.68-.18,1.36-.41,2.06-.54.33-.06.58,0,.77-.33s.19-.36.43-.44l2.4-.86c.45-.16.38-.81.86-1l1.06-.46c.24-.1.6.19.82.09s.27-.94.55-1.08l1.45-.69c.47-.23.68-.17.68-.73a3.14,3.14,0,0,1,.4-1.52c0,.15.13.29.16.44.3-.36,1.29-1.17,1.31-1.64s.22-.8-.24-.88c-.26,0-.47-.7-.6-.94s-.53-.21-.84-.35a6.78,6.78,0,0,1-1-.67c-.53-.36-.37-1.42-.43-2.07a11.26,11.26,0,0,1-1.87,2.13,6.58,6.58,0,0,1-2.71.34,4.91,4.91,0,0,0-.37-2.44c-.08.52-.16,1-.25,1.54-.6-1.14-1.16-2.3-1.82-3.4-.19-.31-1.06-1.37-.82-1.67.73-.86.72-.9,1.78-.75.61.09.72.84,1,1.42a2,2,0,0,0,1.31,1.36c.46.21.77.83,1.27.91a3.42,3.42,0,0,0,2,0c.91-.33.8-.07,1.26.85.26.51.84.46,1.34.57a10.73,10.73,0,0,0,3.5.59c.53-.07,3.69-.77,3.9-.32s.44,1.39.82,1.61a8.63,8.63,0,0,0,1.84,1,2.81,2.81,0,0,0,.75-.07c-.07.58-1,.52-1.37.62.41.44,1.09,1.56,1.67,1.58s.56.08.88-.36l.94-1.3q.07,2.23.14,4.47a9,9,0,0,0,.05,1.57,11.44,11.44,0,0,0,.86,2c1,2.33,2,4.64,3.22,6.89l1.28-.84c.4-.26.31-.77.37-1.26.47.5.72.6.69,1.3a14.34,14.34,0,0,0,.06,2.09c.15,1.62,2.18.57,1.67-.63a6.36,6.36,0,0,0-.95-1.78,3.57,3.57,0,0,1-.84-1.81c-.14-.52.27-1.33.41-1.84a7.85,7.85,0,0,0,0-2c0-.67-.22-1.08.34-1.36a5.72,5.72,0,0,0,1.51-.75l3.15-3.24,1.11-1.14c.14-.14-.08-.65,0-.8s.55-.08.65-.09l2.26-.31c.43-.06.94-.61,1.3-.86a5.92,5.92,0,0,0,1.33,2.43,5.76,5.76,0,0,1,1.49,2.55c.12.28-.13,1.08-.17,1.39-.1.71-.15.65.5.8s.58.15,1-.35l1-1.19a18.85,18.85,0,0,1,1.11,4.56,16.9,16.9,0,0,1,.17,2.57c0,.45-.43,2-.16,2.34l1.82,1.94a8.08,8.08,0,0,1,.78,2.35c.28.85.32,1.14,1,1.65a4.67,4.67,0,0,0,2.07,1.23,14,14,0,0,1-.69-1.72c-.14-.61.1-1.42-.12-2a4.1,4.1,0,0,0-1.09-1.24c-.37-.29-1.33-.73-1.47-1.22-.09-.29-.4-1.9-.65-1.89-.49,0-.49.11-.53-.42a2,2,0,0,1,0-.83,7.14,7.14,0,0,0,.6-1.88c.08-1.09-.1-1.23.91-1.27l-.1.75a3.21,3.21,0,0,1,2.39,1.32l1.27,1.38c.32.33-.29,1,.14,1.46a47,47,0,0,0,3.78-3.2c.44-.41.11-1.79.08-2.37,0-1-.37-1.21-.95-2s-1-1.17-1.36-1.82l-.85-1.35c-.1-.16.28-1,.33-1.17.19-.62,1.33-1.19,1.81-1.56a1.7,1.7,0,0,1,2,.23c-.16,0-.3.16-.47.2.06.17.21.82.35.89.5.26.49-.32.43-.6-.08-.43-.17-.44.2-.57l.87-.32c0-.15.43-10.07.44-10.22C290.34,135.26,282.34,143.42,275,141.78Z" fill="#075b5d"></path><path d="M186.07,127.69s0,0,0,.08,0,.4,0,.59a3.89,3.89,0,0,1-.14,1.05c.43-.32.78.09,1.25-.19s.82.46,1.29.23c-.48.34.21,1.2.6,1.07s.75-.8,1.29-.78a13.2,13.2,0,0,0,1.83,0c.19,0,.42-.56.53-.73s.61-.21.82-.27c-.1-.21.06-.46.25-.69Q190,127.84,186.07,127.69Z" fill="#075b5d"></path><path d="M124.8,147.56c-.27,0-.41-.45-.53-.44a1.89,1.89,0,0,1-1.52-.74l-.07.14A8.16,8.16,0,0,0,119.1,145a5.75,5.75,0,0,0-2.09.28c-.6.15-.76.73-1.24,1,1,.5,2-1.65,3-.69a.63.63,0,0,1-.49.1.66.66,0,0,0,.69.25c.3-.09.33.14.64.15.52,0,1,.39,1.57.47s.53.68,1.11.95c.15.07.71-.08.71.31,0,.13-.48.49-.57.58.7.13,1.42-.05,2.14,0,.38-.1.75-.22,1.13-.33A2,2,0,0,0,124.8,147.56Z" fill="#075b5d"></path><path d="M121.9,150.13a3.26,3.26,0,0,0,1.05.56c.21.06.47-.29.86-.16a2.59,2.59,0,0,0-.22-.34C123.11,150,122.28,149.55,121.9,150.13Z" fill="#075b5d"></path><path d="M291.09,171.74c.43-.43,0-.41-.05-.78,0-.19-.06-.84-.23-.92s-.69-.16-.73-.4.28-.49.22-.78-.64-.38-.64-.64c0-.48-.18-.26-.49-.5s.06-.32-.48-.42c-.33-.06-.56,0-.76-.31-.38-.52-1-.69-1.42-1.14a11.85,11.85,0,0,1-1.34-1.22c-.43-.61-.3-.92-1.11-1-.25,0-1.46-.49-1.59-.31s.77,1.5.94,1.65c.37.33,1.18.49,1.21,1.18s.93.62,1.12,1.33l.34,1.26c.08.29.35.19.53.38a8.87,8.87,0,0,1,1,2.13,5.36,5.36,0,0,0,1,1.33c.7.77,1.42,1.53,2.21,2.27.42-1.07.83-2.16,1.22-3.25A.69.69,0,0,0,291.09,171.74Z" fill="#075b5d"></path><path d="M218.65,131.71c0-.35-.67-.47-1-.43a1.62,1.62,0,0,1-1.35-.36,1.4,1.4,0,0,0-.22.48A7.1,7.1,0,0,0,218.65,131.71Z" fill="#075b5d"></path><path d="M292.15,170.76c-.27-.42-.39,0-.58.25a.48.48,0,0,0,.44.11s.09.05.13.12l.23-.65a.3.3,0,0,0-.26-.09C292.11,170.59,292.13,170.68,292.15,170.76Z" fill="#075b5d"></path><path d="M197.63,126.32c-.34-.64-.56-.32-1.06,0l.56.45Z" fill="#075b5d"></path><path d="M161.38,174.2c0-.13-1.2-.15-1.37-.16a15.93,15.93,0,0,0-3.06-2.2l-3.79-1.37-3.79-1.37c-.22-.08-.54-.69-.68-.88l-1.77-2.32c-.58-.76-1.31-2.3-2.23-2.53s-2.68-.26-3.45-1l-3.68-3.53a4.57,4.57,0,0,0-2.37-.84l-4.72-1.1c-.6-.14-1.7-.67-2.31-.45l-2,.72c-.24.09-1.16.24-1.3.48-.47.8-1.69,2.13-1.65,3.12a3.47,3.47,0,0,0-1.69-1.32c-.82-.25-1.22.07-2,.39-1.26.52-2.95-1.75-2.77-3.14,0-.28.28-.54.33-.84.08-.51.16-1,.24-1.54a1.41,1.41,0,0,0-1-1.58,4.45,4.45,0,0,0-1.14-.16c-.31-.05-.54.23-.86.18a12.43,12.43,0,0,1-2.26-.18c.23-.21.79-.83.63-1.17s.42-1.37-.1-1.39a2.36,2.36,0,0,1,.27-.46.78.78,0,0,0,.2.7,6.45,6.45,0,0,1,.33-1.21l-.16.11-.05-.07c.11-.07.19-.2.29-.29-.28,0-.21-.11-.33-.18.24,0,.69-1,.83-1.34.35-.84-.76-.61-1.15-.66a5.21,5.21,0,0,0-1.52.3c-.69.27-.63,1-.82,1.69a1.34,1.34,0,0,1-.55.75c-.12.11.08.31,0,.38a1.91,1.91,0,0,1-.43.2c-.12.06-.32-.26-.56-.24a3,3,0,0,0-.91.21l-1,.38c-.15.05-.41-.37-.58-.42-.82-.24-1-.77-1.51-1.52a6.46,6.46,0,0,1-1.06-3.93,6.77,6.77,0,0,1,.42-1.8,3.08,3.08,0,0,0,.23-.8c0-.33-.46-.66-.45-1,0-1.07,1.78-2.38,2.53-2.69.45-.19,1.2-.73,1.67-.55.25.1.62.34.88.25.46-.16.64.12,1,.42s.52-.27.75.22c0-.19.11-.27.06-.51.25.16.76.28.63.63a.28.28,0,0,0,.35-.34c0-.09-.54-.27-.64-.33,1-.46-.32-.62-.67-.65.49-.39,2.16.15,2.26-.6.15.86,1,.19,1.51.33a4.07,4.07,0,0,1,.89.58c.29.19.62,0,.93-.14.58-.19.85.48,1.34.82s0,1.18.21,1.74l.2-.17c-.11.43.07.65.24,1a6,6,0,0,1,.41,1s.56.54.66.67c.3.43.52.08.78-.18s.22-1.55.08-2a17,17,0,0,0-.94-2.53,2.54,2.54,0,0,1-.14-1.84,3.22,3.22,0,0,1,1.61-1.83,2.74,2.74,0,0,0,.65-.74c.22-.28.64-.2.77-.38s.4-.8.64-.94.33.18.49.1l.59-.32c-.28-.17-.53.21-.7-.21.2,0,.28-.1.44-.16-.11-.06-.19-.16-.3-.22.19,0,.91,0,.95-.26.09-.52-.51-.4-.86-.4l.28-.08a253.61,253.61,0,0,0-31.25,6.41V137c0,1.13,0,2.25.06,3.38l.38.49c.1.13.44.43.4.61s-.21.57-.07.7l1.84,1.7a5.4,5.4,0,0,1,.9,1.09c.25.38,1.15,1.34,1,1.82-.22.74-.53,1.06,0,1.59l1.7,1.73a3.32,3.32,0,0,0,1,.42l2.62,1.06c1.08.44,2.24,1.26,3.37.91.5-.16,1.09-.59,1.51-.18L109,154.2c.73.71,2.26.78,3.18,1,1.19.34,1.71,1.21,2.56,2.19.34.39.2,1,.47,1.44s1.2.91,1.65,1.25l.66.5c.13.09.27-.15.48-.11.4.08,1.12.8,1.27.37.33.79.3.7,1,.39-.08-.15-.45-.58-.32-.7a3.9,3.9,0,0,1,.74-.6c.37-.2.37-.23.73,0s.54.21.38.83,1,1,.9,1.48c0,.19.09.74.05.77-.28.28-.05.49,0,.87.24,1.68-.56,2.37-1.49,3.57L120,169.08a5.84,5.84,0,0,0-.43,1.75c-.21.88-1,2.43-.52,3.28l2.19,4.1,2.66,5a4.29,4.29,0,0,0,1.38,1.85l2.16,1.5c.37.26,1.2.61,1.45,1a6.53,6.53,0,0,1,.23,1.9,13.85,13.85,0,0,1,.27,2.15,19,19,0,0,1-.47,2.5l-1.06,5.6-1.75,9.22c-.23,1.23-.38,2.5-.5,3.78q3.3,3,6.85,5.76a.82.82,0,0,1,.22-.11c.64-.15.74-.09,1-.71l.87-1.88c.15-.33-.41-.9-.49-1.23a7.45,7.45,0,0,1,0-1.58c1,.48,1.49.75,2.4.11.2-.14,0-.7.17-1,.21-.55.07-.79-.11-1.37a4.06,4.06,0,0,0,2.25,0c.93-.25,1.71-.23,2.29-1.08.2-.29.72-.81.79-1.17a5.69,5.69,0,0,0-.32-1.57c-.16-.82-1.74-.92-1.49-1.87.43.13,3.18,1.32,3.39,1.07l2.63-3.38,2.87-3.69c.23-.29.17-.92.21-1.29s0-2,.26-2.19l3.46-2.38c.38-.26,1.43-.1,1.88-.13s.69-.69,1-1.09c.6-.92,1.8-2.11,1.88-3.27.12-1.75.25-3.5.38-5.25a3.48,3.48,0,0,1,.9-1.7l2.47-3.56c.67-1,.64-.95.36-2.17C161.64,175.33,161.51,174.77,161.38,174.2Z" fill="#075b5d"></path><path d="M93.09,144.63c0-.29-.25-.61-.49-.82,0,.41.05.83.08,1.24C92.86,145.07,93,144.94,93.09,144.63Z" fill="#075b5d"></path><path d="M202.27,125.46c0,.14-.22.4-.25.55s.23.2.22.28c-.07.43-.43.47-.08.81s.56.29.6-.15c0-.25.4,0,.45-.47s.12-.94.18-1.42c.12-1-1-.39-1.24-.21l-.28-.11C201.69,125.26,202.2,125.11,202.27,125.46Z" fill="#075b5d"></path><path d="M222.45,211.6c-41.37-8-70.3-43.42-80.88-82.73l-.09-.34A268.22,268.22,0,0,0,92,137a102.77,102.77,0,0,0,175.4,72.65A98.88,98.88,0,0,1,222.45,211.6Z" fill="#6dc3da" opacity="0.6" style="mix-blend-mode: multiply;"></path><ellipse cx="195.19" cy="134.29" rx="102.79" ry="43.14" fill="#84ce41"></ellipse><path d="M174.37,120.18c3.63-2.14,4.28-2.69,7.75-5.09l-3-5.42-12.43,5.87C168.81,117.37,172.17,118.45,174.37,120.18Z" opacity="0.68" fill="url(#linear-gradient-2)" style="mix-blend-mode: multiply;"></path><rect x="176.97" y="82.17" width="5.15" height="34.12" rx="1.74" ry="1.74" fill="#bc532a"></rect><path d="M192.25,89.15C191.07,84,185.8,61.31,176.45,68c-4.79,3.42-6.14,8.76-8.05,14a41.62,41.62,0,0,0-3,13.52c-.15,9.44,9.45,10.59,16.8,10.56,4.24,0,10.28-2.52,11.27-7.12.6-2.77-.42-6-1-8.76Z" fill="#2c9135"></path><path d="M192.7,90.15l-.22-1c-1.05-4.55-5.29-22.82-12.72-22.37,2.21,9.63,5.46,19.8,3.72,29.66a22.54,22.54,0,0,1-3.93,9.54c1,0,2,.06,2.9.06,4.24,0,10.28-2.52,11.27-7.12C194.31,96.14,193.29,92.87,192.7,90.15Z" fill="#156819"></path><path d="M115.44,134.07c3.63-2.14,4.28-2.69,7.75-5.09l-3-5.42-12.43,5.87C109.88,131.25,113.25,132.34,115.44,134.07Z" opacity="0.68" fill="url(#linear-gradient-3)" style="mix-blend-mode: multiply;"></path><rect x="118.05" y="96.05" width="5.15" height="34.12" rx="1.74" ry="1.74" fill="#bc532a"></rect><path d="M133.33,103c-1.19-5.15-6.46-27.84-15.8-21.17-4.79,3.42-6.14,8.76-8.05,14a41.62,41.62,0,0,0-3,13.52c-.15,9.44,9.45,10.59,16.8,10.56,4.24,0,10.28-2.52,11.27-7.12.6-2.77-.42-6-1-8.76Z" fill="#2c9135"></path><path d="M133.78,104l-.22-1c-1.05-4.55-5.29-22.82-12.72-22.37,2.21,9.63,5.46,19.8,3.72,29.66a22.54,22.54,0,0,1-3.93,9.54c1,0,2,.06,2.9.06,4.24,0,10.28-2.52,11.27-7.12C135.38,110,134.37,106.75,133.78,104Z" fill="#156819"></path><path d="M143.5,166.42c4.63-2.73,5.45-3.43,9.88-6.49L149.53,153l-15.85,7.49C136.4,162.82,140.7,164.21,143.5,166.42Z" opacity="0.68" fill="url(#linear-gradient-4)" style="mix-blend-mode: multiply;"></path><rect x="146.81" y="117.95" width="6.56" height="43.5" rx="1.74" ry="1.74" fill="#bc532a"></rect><path d="M166.3,126.85c-1.51-6.56-8.23-35.49-20.15-27-6.1,4.36-7.83,11.16-10.27,17.82-2,5.51-3.7,11.32-3.79,17.23-.19,12,12.05,13.51,21.42,13.46,5.4,0,13.11-3.21,14.37-9.08.76-3.54-.54-7.71-1.29-11.17Q166.44,127.49,166.3,126.85Z" fill="#2c9135"></path><path d="M166.87,128.12q-.14-.64-.29-1.28c-1.34-5.81-6.75-29.09-16.22-28.52,2.81,12.28,7,25.25,4.75,37.81a28.73,28.73,0,0,1-5,12.16c1.26.06,2.5.08,3.7.08,5.4,0,13.11-3.21,14.37-9.08C168.92,135.76,167.62,131.59,166.87,128.12Z" fill="#156819"></path><path d="M254.36,133.2c4.89-2.88,5.76-3.62,10.43-6.85l-4.06-7.3L244,127C246.86,129.4,251.4,130.86,254.36,133.2Z" opacity="0.68" fill="url(#linear-gradient-5)" style="mix-blend-mode: multiply;"></path><rect x="257.86" y="82.03" width="6.93" height="45.92" rx="1.74" ry="1.74" fill="#bc532a"></rect><path d="M278.43,91.42c-1.6-6.93-8.69-37.47-21.27-28.49-6.44,4.6-8.26,11.79-10.84,18.81-2.14,5.82-3.91,11.95-4,18.19-.2,12.71,12.72,14.26,22.61,14.21,5.7,0,13.84-3.39,15.17-9.58.8-3.73-.56-8.14-1.36-11.8Q278.58,92.1,278.43,91.42Z" fill="#2c9135"></path><path d="M279,92.77q-.15-.68-.3-1.35c-1.41-6.13-7.13-30.71-17.13-30.11,3,13,7.35,26.65,5,39.92a30.34,30.34,0,0,1-5.29,12.84c1.33.07,2.64.09,3.9.08,5.7,0,13.84-3.39,15.17-9.58C281.2,100.83,279.83,96.43,279,92.77Z" fill="#156819"></path><path d="M218.91,119.53c3.63-2.14,4.28-2.69,7.75-5.09l-3-5.42-12.43,5.87C213.34,116.71,216.71,117.79,218.91,119.53Z" opacity="0.68" fill="url(#linear-gradient-6)" style="mix-blend-mode: multiply;"></path><rect x="221.51" y="81.51" width="5.15" height="34.12" rx="1.74" ry="1.74" fill="#bc532a"></rect><path d="M236.79,88.49c-1.19-5.15-6.46-27.84-15.8-21.17-4.79,3.42-6.14,8.76-8.05,14a41.62,41.62,0,0,0-3,13.52c-.15,9.44,9.45,10.59,16.8,10.56,4.24,0,10.28-2.52,11.27-7.12.6-2.77-.42-6-1-8.76Z" fill="#2c9135"></path><path d="M237.24,89.49l-.22-1c-1.05-4.55-5.29-22.82-12.72-22.37,2.21,9.63,5.46,19.8,3.72,29.66a22.54,22.54,0,0,1-3.93,9.54c1,0,2,.06,2.9.06,4.24,0,10.28-2.52,11.27-7.12C238.85,95.48,237.83,92.21,237.24,89.49Z" fill="#156819"></path><path d="M227.88,166.41c3.63-2.14,4.28-2.69,7.75-5.09l-3-5.42-12.43,5.87C222.32,163.59,225.69,164.67,227.88,166.41Z" opacity="0.68" fill="url(#linear-gradient-7)" style="mix-blend-mode: multiply;"></path><rect x="230.49" y="128.39" width="5.15" height="34.12" rx="1.74" ry="1.74" fill="#bc532a"></rect><path d="M245.77,135.37c-1.19-5.15-6.46-27.84-15.8-21.17-4.79,3.42-6.14,8.76-8.05,14a41.62,41.62,0,0,0-3,13.52c-.15,9.44,9.45,10.59,16.8,10.56,4.24,0,10.28-2.52,11.27-7.12.6-2.77-.42-6-1-8.76Z" fill="#2c9135"></path><path d="M246.21,136.37l-.22-1c-1.05-4.55-5.29-22.82-12.72-22.37,2.21,9.63,5.46,19.8,3.72,29.66a22.54,22.54,0,0,1-3.93,9.54c1,0,2,.06,2.9.06,4.24,0,10.28-2.52,11.27-7.12C247.82,142.36,246.81,139.09,246.21,136.37Z" fill="#156819"></path><path d="M282.94,104.48s-8,.67-9.71,0-7-2.61-7.38-1.06,2.67,2.33,2.67,2.33-5.43,1.36-6.94,1.81-.66,1.86.56,1.65c0,0-3.15,1.42-2.07,2.14a3,3,0,0,0,2.32.33s-1.43,1.17.2,1.89a16.66,16.66,0,0,0,4.43-1s-1.83,1.56-1.24,2,.42.85,5.88-2c0,0,11.4-2.54,13.94-3" fill="#f04900"></path><path d="M323,183.6c6.61,2.73,23.66,11.27,34,17a87.24,87.24,0,0,1-11.07,5.63c-3.81,1.76-7.14,4.24-10.72,6.4-5.69,3.43-12.12,5.75-17.24,10-7.24-6.13-19.28-15.29-25.82-20.47-.23,0-2.47-2.2-2.3-3.55C297,195.18,321.55,184.73,323,183.6Z" opacity="0.41" fill="url(#linear-gradient-8)"></path><path d="M331.23,193.36l1.58-1,0-17.79-7.81-.28s-.15,7.59-2,9.32-6.41.49-6.86.64-3.52-.74-4.9.68,4.68,5.52,7.9,6.27a20.8,20.8,0,0,0,6.7.25s.7-4.55,1.82-4.1,1.2,5.26,1.2,5.26Z" fill="#68e1fd"></path><path d="M338.9,124.55c-.11-11.76-1-22.62-10.42-30.82l-.59,2.15c0-.08,0-.16,0-.24-.09-1-1.8-1.46-2-.27a2.63,2.63,0,0,1,0,.27v.06c0,.39-.09.79-.11,1.18a1,1,0,0,0-1.52.05c-1.84.59-2.58,3.25-2.59,4.91a1,1,0,0,0,2,0,3.57,3.57,0,0,1,.51-2.16l.18-.51v.06l0,.12a3.86,3.86,0,0,0,.07,1.49,1,1,0,0,0,.49.59c.09.38.19.76.29,1.14l-2.7.77-3.86,24.84s.52,54.12,2.16,54.59c11.29,3.28,15.94-2.16,15.94-2.16C337.52,162,339.07,143.2,338.9,124.55Z" fill="#fc9c54"></path><path d="M309.83,207.09l1.58-1,0-17.79-7.81-.28s-.15,7.59-2,9.32-6.41.49-6.86.64-3.52-.74-4.9.68,4.68,5.52,7.9,6.27a20.8,20.8,0,0,0,6.7.25s.7-4.55,1.82-4.1,1.2,5.26,1.2,5.26Z" fill="#68e1fd"></path><path d="M312.63,101.77s-7.2,26.58-10.13,50.37c-.7,5.71-6.61,39.77-6.61,39.77s9.74,3.56,18.4.77c0,0,10.3-43.46,10.74-44.31s7.39-29,8.19-49.2" fill="#fc9c54"></path><path d="M311.79,66.4l-4.33.74c-.87.6-7.39,8-7.91,15.46a40.52,40.52,0,0,0,1.83,5.8c.88,2.57,1.83,5.13,2.92,7.62a59.2,59.2,0,0,0,4.05,7.9c.67,1.07,1,1.61,1.78,2.63a5.61,5.61,0,0,0,1.93.16c13.26-1.66,18.43-12.13,18.32-13.22s-6-14.41-9.59-22.31A8.34,8.34,0,0,0,311.79,66.4Z" fill="#68e1fd"></path><path d="M295.15,57.88s3.77,14,9.17,13.1,8.31-9,7.41-11.85S299.66,50.35,295.15,57.88Z" fill="#f04900"></path><path d="M314.88,41.45a6.52,6.52,0,0,0-8.43,1c-2,2.23-2.22,5.19-1.56,7.95-3.33-.64-7.17.32-10.58,4,0,0-3.06,4.14-.79,6.3s5.37.36,8.25-.68,2.13,2.49,3.76,5,3,2.23,4.24,1.82,5.49-4.34,2.79-10.53A8.89,8.89,0,0,0,312,55.2,15.92,15.92,0,0,0,314,54.08a8.73,8.73,0,0,0,3.62-3.73A7.58,7.58,0,0,0,314.88,41.45Z" fill="#fc9c54"></path><path d="M330.2,118.73c-.64,12.71-4.39,24.89-7.57,37.13s-5.89,24.43-8.21,36.78l1.08-.3q3.53-18.71,8.34-37.15c3.15-12,6.73-24,7.36-36.46C331.23,118.09,330.23,118.09,330.2,118.73Z" fill="#653200"></path><path d="M299.55,82.6S295.82,94,292.68,97c-2.2,2.11-11.73,5.36-17.24,7.12a17.77,17.77,0,0,0,3.64,9.73c8.09-1.87,21.22-6.58,24.44-10.4,4.72-5.59,6.87-13.76,6.87-13.76Z" fill="#68e1fd"></path></g></g></svg>